<svg width="95" height="15" viewBox="0 0 95 15" fill="none" xmlns="http://www.w3.org/2000/svg">
<path d="M94.1906 8.47054C94.4511 8.95754 94.2675 9.5635 93.7805 9.82398L85.8444 14.0688C85.3574 14.3293 84.7514 14.1457 84.4909 13.6587C84.2305 13.1717 84.4141 12.5657 84.9011 12.3052L91.9554 8.53206L88.1822 1.47777C87.9217 0.990768 88.1053 0.384814 88.5923 0.12433C89.0793 -0.136155 89.6853 0.0474703 89.9458 0.534467L94.1906 8.47054ZM4.35536 8.72984C4.87818 8.55187 5.44629 8.83142 5.62426 9.35425C5.80224 9.87707 5.52268 10.4452 4.99986 10.6232L4.35536 8.72984ZM12.4248 8.36514C11.8916 8.50895 11.3427 8.19326 11.1989 7.66002C11.0551 7.12679 11.3708 6.57794 11.904 6.43413L12.4248 8.36514ZM19.5752 4.61041C20.116 4.49846 20.6452 4.84612 20.7571 5.38694C20.8691 5.92776 20.5214 6.45694 19.9806 6.56889L19.5752 4.61041ZM27.6315 5.2079C27.0853 5.28959 26.5763 4.91303 26.4946 4.36682C26.4129 3.82062 26.7895 3.3116 27.3357 3.2299L27.6315 5.2079ZM35.1576 2.2732C35.7074 2.22066 36.1956 2.62377 36.2482 3.17355C36.3007 3.72333 35.8976 4.2116 35.3478 4.26413L35.1576 2.2732ZM43.101 3.7258C42.5493 3.74985 42.0825 3.32207 42.0584 2.77031C42.0344 2.21854 42.4622 1.75175 43.0139 1.7277L43.101 3.7258ZM50.89 1.58537C51.4422 1.58943 51.8866 2.04043 51.8826 2.5927C51.8785 3.14497 51.4275 3.58938 50.8753 3.58532L50.89 1.58537ZM58.6461 3.83958C58.0948 3.80753 57.6738 3.33458 57.7058 2.78323C57.7379 2.23187 58.2108 1.8109 58.7622 1.84295L58.6461 3.83958ZM66.6109 2.49994C67.1599 2.56004 67.5562 3.05382 67.4961 3.60282C67.436 4.15183 66.9423 4.54817 66.3933 4.48807L66.6109 2.49994ZM74.0974 5.53267C73.5522 5.44434 73.1818 4.93077 73.2702 4.3856C73.3585 3.84043 73.8721 3.47009 74.4173 3.55842L74.0974 5.53267ZM82.1577 5.02154C82.6975 5.13838 83.0404 5.67068 82.9235 6.21047C82.8067 6.75025 82.2744 7.09311 81.7346 6.97627L82.1577 5.02154ZM89.284 8.82311C88.7513 8.67746 88.4375 8.12752 88.5831 7.59479C88.7288 7.06205 89.2787 6.74826 89.8115 6.89392L89.284 8.82311ZM0.644782 10.0652C1.86015 9.60338 3.09743 9.15806 4.35536 8.72984L4.99986 10.6232C3.76363 11.044 2.54834 11.4814 1.35522 11.9348L0.644782 10.0652ZM11.904 6.43413C14.3997 5.76106 16.9595 5.15184 19.5752 4.61041L19.9806 6.56889C17.4029 7.10247 14.8815 7.70257 12.4248 8.36514L11.904 6.43413ZM27.3357 3.2299C29.9023 2.846 32.5119 2.52598 35.1576 2.2732L35.3478 4.26413C32.7373 4.51356 30.1629 4.82927 27.6315 5.2079L27.3357 3.2299ZM43.0139 1.7277C45.6142 1.61433 48.2416 1.56589 50.89 1.58537L50.8753 3.58532C48.261 3.56609 45.6675 3.6139 43.101 3.7258L43.0139 1.7277ZM58.7622 1.84295C61.3661 1.99432 63.9842 2.21241 66.6109 2.49994L66.3933 4.48807C63.8007 4.20427 61.2165 3.989 58.6461 3.83958L58.7622 1.84295ZM74.4173 3.55842C76.9962 3.9763 79.5781 4.46315 82.1577 5.02154L81.7346 6.97627C79.1897 6.4254 76.6422 5.94503 74.0974 5.53267L74.4173 3.55842ZM89.8115 6.89392C91.0759 7.23963 92.3386 7.60327 93.5988 7.98517L93.0188 9.89922C91.7762 9.52266 90.531 9.16405 89.284 8.82311L89.8115 6.89392ZM94.1906 8.47054C94.4511 8.95754 94.2675 9.5635 93.7805 9.82398L85.8444 14.0688C85.3574 14.3293 84.7514 14.1457 84.4909 13.6587C84.2305 13.1717 84.4141 12.5657 84.9011 12.3052L91.9554 8.53206L88.1822 1.47777C87.9217 0.990768 88.1053 0.384814 88.5923 0.12433C89.0793 -0.136155 89.6853 0.0474703 89.9458 0.534467L94.1906 8.47054ZM4.35536 8.72984C4.87818 8.55187 5.44629 8.83142 5.62426 9.35425C5.80224 9.87707 5.52268 10.4452 4.99986 10.6232L4.35536 8.72984ZM12.4248 8.36514C11.8916 8.50895 11.3427 8.19326 11.1989 7.66002C11.0551 7.12679 11.3708 6.57794 11.904 6.43413L12.4248 8.36514ZM19.5752 4.61041C20.116 4.49846 20.6452 4.84612 20.7571 5.38694C20.8691 5.92776 20.5214 6.45694 19.9806 6.56889L19.5752 4.61041ZM27.6315 5.2079C27.0853 5.28959 26.5763 4.91303 26.4946 4.36682C26.4129 3.82062 26.7895 3.3116 27.3357 3.2299L27.6315 5.2079ZM35.1576 2.2732C35.7074 2.22066 36.1956 2.62377 36.2482 3.17355C36.3007 3.72333 35.8976 4.2116 35.3478 4.26413L35.1576 2.2732ZM43.101 3.7258C42.5493 3.74985 42.0825 3.32207 42.0584 2.77031C42.0344 2.21854 42.4622 1.75175 43.0139 1.7277L43.101 3.7258ZM50.89 1.58537C51.4422 1.58943 51.8866 2.04043 51.8826 2.5927C51.8785 3.14497 51.4275 3.58938 50.8753 3.58532L50.89 1.58537ZM58.6461 3.83958C58.0948 3.80753 57.6738 3.33458 57.7058 2.78323C57.7379 2.23187 58.2108 1.8109 58.7622 1.84295L58.6461 3.83958ZM66.6109 2.49994C67.1599 2.56004 67.5562 3.05382 67.4961 3.60282C67.436 4.15183 66.9423 4.54817 66.3933 4.48807L66.6109 2.49994ZM74.0974 5.53267C73.5522 5.44434 73.1818 4.93077 73.2702 4.3856C73.3585 3.84043 73.8721 3.47009 74.4173 3.55842L74.0974 5.53267ZM82.1577 5.02154C82.6975 5.13838 83.0404 5.67068 82.9235 6.21047C82.8067 6.75025 82.2744 7.09311 81.7346 6.97627L82.1577 5.02154ZM89.284 8.82311C88.7513 8.67746 88.4375 8.12752 88.5831 7.59479C88.7288 7.06205 89.2787 6.74826 89.8115 6.89392L89.284 8.82311ZM0.644782 10.0652C1.86015 9.60338 3.09743 9.15806 4.35536 8.72984L4.99986 10.6232C3.76363 11.044 2.54834 11.4814 1.35522 11.9348L0.644782 10.0652ZM11.904 6.43413C14.3997 5.76106 16.9595 5.15184 19.5752 4.61041L19.9806 6.56889C17.4029 7.10247 14.8815 7.70257 12.4248 8.36514L11.904 6.43413ZM27.3357 3.2299C29.9023 2.846 32.5119 2.52598 35.1576 2.2732L35.3478 4.26413C32.7373 4.51356 30.1629 4.82927 27.6315 5.2079L27.3357 3.2299ZM43.0139 1.7277C45.6142 1.61433 48.2416 1.56589 50.89 1.58537L50.8753 3.58532C48.261 3.56609 45.6675 3.6139 43.101 3.7258L43.0139 1.7277ZM58.7622 1.84295C61.3661 1.99432 63.9842 2.21241 66.6109 2.49994L66.3933 4.48807C63.8007 4.20427 61.2165 3.989 58.6461 3.83958L58.7622 1.84295ZM74.4173 3.55842C76.9962 3.9763 79.5781 4.46315 82.1577 5.02154L81.7346 6.97627C79.1897 6.4254 76.6422 5.94503 74.0974 5.53267L74.4173 3.55842ZM89.8115 6.89392C91.0759 7.23963 92.3386 7.60327 93.5988 7.98517L93.0188 9.89922C91.7762 9.52266 90.531 9.16405 89.284 8.82311L89.8115 6.89392Z" fill="white"/>
</svg>
