<svg width="32" height="32" viewBox="0 0 32 32" fill="none" xmlns="http://www.w3.org/2000/svg">
<g clip-path="url(#clip0_442_19553)">
<path d="M22.6928 13.8629C22.5899 13.8629 22.4842 13.8777 22.3785 13.9067L21.1841 14.2357L19.944 11.2144C19.5926 10.3585 18.554 9.66211 17.6288 9.66211H6.02172C5.09644 9.66211 4.05796 10.3585 3.70664 11.2144L2.46808 14.2314L1.28846 13.9065C1.1829 13.8775 1.07722 13.8627 0.974244 13.8627C0.409683 13.8627 0 14.294 0 14.8881V15.5921C0 16.2856 0.564327 16.8499 1.25782 16.8499H1.39297L1.19277 17.3376C0.866334 18.1325 0.60061 19.4789 0.60061 20.3386V26.3406C0.60061 27.0341 1.16494 27.5984 1.85843 27.5984H3.50115C4.19464 27.5984 4.75897 27.0341 4.75897 26.3406V24.8419H18.8914V26.3406C18.8914 27.0341 19.4558 27.5984 20.1493 27.5984H21.7917C22.4852 27.5984 23.0496 27.0341 23.0496 26.3406V20.3388C23.0496 19.4791 22.7838 18.1328 22.4574 17.3377L22.2572 16.8501H22.4091C23.1026 16.8501 23.667 16.2857 23.667 15.5922V14.8882C23.6671 14.2941 23.2573 13.8629 22.6928 13.8629ZM3.36976 16.1669L5.24591 11.5971C5.4561 11.0851 6.08078 10.6662 6.63418 10.6662H17.0163C17.5697 10.6662 18.1944 11.085 18.4046 11.5971L20.2808 16.1669C20.4908 16.6789 20.2101 17.0978 19.6567 17.0978H3.99397C3.44044 17.0977 3.15969 16.6789 3.36976 16.1669ZM7.55782 21.9472C7.55782 22.224 7.33132 22.4502 7.05479 22.4502H3.49082C3.21406 22.4502 2.98767 22.2238 2.98767 21.9472V20.2368C2.98767 19.9602 3.21406 19.7338 3.49082 19.7338H7.05479C7.33132 19.7338 7.55782 19.9602 7.55782 20.2368V21.9472ZM20.629 21.9472C20.629 22.224 20.4025 22.4502 20.126 22.4502H16.562C16.2855 22.4502 16.059 22.2238 16.059 21.9472V20.2368C16.059 19.9602 16.2855 19.7338 16.562 19.7338H20.126C20.4025 19.7338 20.629 19.9602 20.629 20.2368V21.9472Z" fill="#047174"/>
<path d="M30.4266 4.40137H24.4692C23.6017 4.40137 22.896 5.10719 22.896 5.97458V11.9321C22.896 12.7996 23.6018 13.5054 24.4692 13.5054H26.8607V26.8764C26.8607 27.2007 27.1235 27.4635 27.4478 27.4635C27.7721 27.4635 28.0349 27.2007 28.0349 26.8764V13.5055H30.4266C31.2941 13.5055 31.9998 12.7997 31.9998 11.9322V5.97469C31.9998 5.10719 31.2941 4.40137 30.4266 4.40137ZM29.0773 9.34093C28.7347 9.64939 28.23 9.8058 27.5773 9.8058H26.7147C26.6111 9.8058 26.5268 9.89022 26.5268 9.99379V11.4485C26.5268 11.6066 26.3982 11.735 26.2402 11.735H25.5868C25.4287 11.735 25.3002 11.6065 25.3002 11.4485V6.45871C25.3002 6.30054 25.4288 6.17196 25.5868 6.17196H27.2326C28.3229 6.17196 28.7298 6.33624 29.0643 6.62004C29.417 6.91935 29.5957 7.37776 29.5957 7.98283C29.5956 8.57405 29.4213 9.03082 29.0773 9.34093Z" fill="#047174"/>
<path d="M28.1435 7.37661C27.9843 7.25637 27.7026 7.19531 27.3064 7.19531H26.7147C26.6112 7.19531 26.5269 7.27962 26.5269 7.38307V8.57865C26.5269 8.6821 26.6112 8.76641 26.7147 8.76641H27.0692C27.1994 8.76641 27.4099 8.75678 27.5382 8.74492C27.6628 8.73353 28.0145 8.68257 28.1435 8.58511C28.2984 8.46792 28.3769 8.26526 28.3769 7.98286C28.3769 7.69776 28.2984 7.4938 28.1435 7.37661Z" fill="#047174"/>
</g>
<defs>
<clipPath id="clip0_442_19553">
<rect width="32" height="32" fill="white"/>
</clipPath>
</defs>
</svg>
