<svg width="32" height="32" viewBox="0 0 32 32" fill="none" xmlns="http://www.w3.org/2000/svg">
<path d="M30.3726 11.2H28.0226C28.1226 10.65 28.1726 10.1 28.1726 9.5C28.1726 9.2 27.9226 9 27.6726 9H4.52261C4.22261 9 4.02261 9.25 4.02261 9.5C4.02261 10.05 4.07261 10.65 4.17261 11.2H1.67261C1.27261 11.2 0.922607 11.55 0.922607 11.95C0.922607 12.35 1.27261 12.7 1.67261 12.7H4.42261C5.32261 16.05 7.67261 18.8 10.6726 20.3L6.87261 31C6.72261 31.4 6.92261 31.8 7.32261 31.95C7.42261 32 7.47261 32 7.57261 32C7.87261 32 8.17261 31.8 8.27261 31.5L10.3726 25.7H21.7726L23.8726 31.5C23.9726 31.8 24.2726 32 24.5726 32C24.6726 32 24.7226 32 24.8226 31.95C25.2226 31.8 25.4226 31.4 25.2726 31L21.4226 20.3C24.4726 18.8 26.7726 16.05 27.6726 12.7H30.3226C30.7226 12.7 31.0726 12.35 31.0726 11.95C31.1226 11.5 30.7726 11.2 30.3726 11.2ZM10.9226 24.2L12.1226 20.9C13.3726 21.35 14.7226 21.6 16.0726 21.6C17.4726 21.6 18.7726 21.35 20.0226 20.9L21.2226 24.2H10.9226Z" fill="#047174"/>
<path d="M16.6726 5.15C16.6226 5.4 16.4726 5.65 16.1726 5.9C15.9226 6.1 15.8726 6.45 16.0726 6.7C16.1726 6.85 16.3726 6.95 16.5226 6.95C16.6226 6.95 16.7726 6.9 16.8726 6.85C17.4226 6.45 17.7726 5.9 17.8226 5.35C17.9226 4.65 17.6226 3.9 16.9226 3.1C16.5726 2.65 16.2226 2.2 16.2226 1.9C16.2226 1.65 16.4726 1.4 16.8726 1.05C17.1226 0.85 17.1726 0.5 16.9726 0.25C16.8226 0.1 16.6726 0 16.4726 0C16.3226 0 16.2226 0.05 16.1226 0.15C15.4726 0.7 15.1226 1.2 15.0726 1.75C15.0226 2.5 15.5226 3.2 16.0226 3.8C16.3726 4.15 16.7226 4.65 16.6726 5.15Z" fill="#047174"/>
<path d="M20.2725 5.49961C20.2725 5.64961 20.1725 5.74961 20.0225 5.84961C19.7725 6.04961 19.7225 6.39961 19.9225 6.64961C20.0225 6.79961 20.2225 6.89961 20.3725 6.89961C20.4725 6.89961 20.6226 6.84961 20.7226 6.79961C21.1726 6.49961 21.3725 6.09961 21.4225 5.64961C21.4725 5.09961 21.2725 4.54961 20.7725 3.99961C20.6725 3.84961 20.3225 3.49961 20.3725 3.29961C20.3725 3.24961 20.4226 3.09961 20.7226 2.84961C20.9726 2.64961 21.0225 2.29961 20.8225 2.04961C20.7225 1.89961 20.5725 1.84961 20.3725 1.84961C20.2225 1.84961 20.1225 1.89961 20.0225 1.99961C19.5225 2.39961 19.2726 2.79961 19.2226 3.19961C19.1726 3.79961 19.5225 4.29961 19.9225 4.74961C20.1725 5.04961 20.2725 5.29961 20.2725 5.49961Z" fill="#047174"/>
<path d="M12.5226 5.49961C12.5226 5.64961 12.4226 5.74961 12.2726 5.84961C12.0226 6.04961 11.9725 6.39961 12.1725 6.64961C12.2725 6.79961 12.4726 6.89961 12.6226 6.89961C12.7226 6.89961 12.8726 6.84961 12.9726 6.79961C13.4226 6.49961 13.6226 6.09961 13.6725 5.64961C13.7225 5.09961 13.5226 4.54961 13.0226 3.99961C12.9226 3.84961 12.5726 3.49961 12.6226 3.29961C12.6226 3.24961 12.6726 3.09961 12.9726 2.84961C13.2226 2.64961 13.2726 2.29961 13.0726 2.04961C12.9726 1.89961 12.8226 1.84961 12.6226 1.84961C12.4726 1.84961 12.3726 1.89961 12.2726 1.99961C11.7726 2.39961 11.5226 2.79961 11.4726 3.19961C11.4226 3.79961 11.7725 4.29961 12.1725 4.74961C12.4225 5.04961 12.5726 5.29961 12.5226 5.49961Z" fill="#047174"/>
</svg>
