<svg width="18" height="18" viewBox="0 0 18 18" fill="none" xmlns="http://www.w3.org/2000/svg">
<path d="M2.01149 13.9639L2.96017 14.2801H2.96017L2.01149 13.9639ZM2.76068 11.7163L1.81199 11.4001H1.81199L2.76068 11.7163ZM3.53372 10.4655L4.24083 11.1726L4.24083 11.1726L3.53372 10.4655ZM10.9996 2.9997L10.2925 2.29259V2.29259L10.9996 2.9997ZM14.9996 6.9997L15.7067 7.7068H15.7067L14.9996 6.9997ZM7.53372 14.4655L6.82662 13.7584L6.82661 13.7584L7.53372 14.4655ZM6.28291 15.2386L6.59914 16.1873H6.59914L6.28291 15.2386ZM4.03535 15.9878L4.35158 16.9365L4.35158 16.9365L4.03535 15.9878ZM7.12368 14.8483L6.52144 14.0499L6.52144 14.05L7.12368 14.8483ZM6.80861 15.043L6.3639 14.1473L6.80861 15.043ZM15.9632 4.11167L15.0672 4.55568V4.55568L15.9632 4.11167ZM15.9632 5.88773L15.0672 5.44371V5.44371L15.9632 5.88773ZM12.1115 2.03609L12.5555 2.93211V2.93211L12.1115 2.03609ZM13.8876 2.03609L13.4436 2.93211V2.93211L13.8876 2.03609ZM2.95627 11.1907L3.85195 11.6354L3.85195 11.6354L2.95627 11.1907ZM3.151 10.8756L2.35268 10.2733L2.35268 10.2733L3.151 10.8756ZM1.6388 15.7544L0.69689 16.0903L1.6388 15.7544ZM2.24482 16.3605L1.90894 17.3024L1.90894 17.3024L2.24482 16.3605ZM10.7067 3.29262C10.3161 2.9021 9.68297 2.9021 9.29245 3.29262C8.90192 3.68315 8.90192 4.31631 9.29245 4.70684L10.7067 3.29262ZM13.2924 8.70684C13.683 9.09736 14.3161 9.09736 14.7067 8.70684C15.0972 8.31631 15.0972 7.68315 14.7067 7.29262L13.2924 8.70684ZM2.96017 14.2801L3.70936 12.0326L1.81199 11.4001L1.06281 13.6477L2.96017 14.2801ZM4.24083 11.1726L11.7067 3.7068L10.2925 2.29259L2.82662 9.75843L4.24083 11.1726ZM14.2925 6.29259L6.82662 13.7584L8.24083 15.1726L15.7067 7.7068L14.2925 6.29259ZM5.96668 14.2899L3.71912 15.0391L4.35158 16.9365L6.59914 16.1873L5.96668 14.2899ZM6.82661 13.7584C6.60853 13.9765 6.56433 14.0176 6.52144 14.0499L7.72592 15.6466C7.90547 15.5111 8.06049 15.353 8.24083 15.1726L6.82661 13.7584ZM6.59914 16.1873C6.84109 16.1066 7.05187 16.0387 7.25331 15.9387L6.3639 14.1473C6.31578 14.1712 6.25928 14.1924 5.96668 14.2899L6.59914 16.1873ZM6.52144 14.05C6.47205 14.0872 6.41931 14.1198 6.3639 14.1473L7.25331 15.9387C7.41954 15.8561 7.57776 15.7584 7.72592 15.6466L6.52144 14.05ZM14.2925 3.7068C14.8948 4.30915 15.0127 4.4457 15.0672 4.55568L16.8592 3.66765C16.6222 3.18944 16.1948 2.78075 15.7067 2.29259L14.2925 3.7068ZM15.7067 7.7068C16.1948 7.21865 16.6222 6.80995 16.8592 6.33174L15.0672 5.44371C15.0127 5.55369 14.8948 5.69025 14.2925 6.29259L15.7067 7.7068ZM15.0672 4.55568C15.2058 4.83546 15.2058 5.16394 15.0672 5.44371L16.8592 6.33174C17.2751 5.49241 17.2751 4.50698 16.8592 3.66765L15.0672 4.55568ZM11.7067 3.7068C12.309 3.10447 12.4456 2.98661 12.5555 2.93211L11.6675 1.14007C11.1893 1.37704 10.7806 1.80444 10.2925 2.29259L11.7067 3.7068ZM15.7067 2.29259C15.2185 1.80443 14.8098 1.37704 14.3316 1.14007L13.4436 2.93211C13.5536 2.98661 13.6901 3.10446 14.2925 3.7068L15.7067 2.29259ZM12.5555 2.93211C12.8353 2.79346 13.1638 2.79346 13.4436 2.93211L14.3316 1.14007C13.4923 0.724144 12.5068 0.724144 11.6675 1.14007L12.5555 2.93211ZM3.70936 12.0326C3.80689 11.74 3.82806 11.6835 3.85195 11.6354L2.06059 10.7459C1.96058 10.9474 1.89265 11.1582 1.81199 11.4001L3.70936 12.0326ZM2.82662 9.75843C2.64628 9.93877 2.48813 10.0938 2.35268 10.2733L3.94931 11.4778C3.98167 11.4349 4.02274 11.3907 4.24083 11.1726L2.82662 9.75843ZM3.85195 11.6354C3.87946 11.5799 3.91205 11.5272 3.94931 11.4778L2.35268 10.2733C2.24091 10.4215 2.14313 10.5797 2.06059 10.7459L3.85195 11.6354ZM1.06281 13.6477C0.906261 14.1173 0.765948 14.5351 0.686077 14.875C0.609691 15.2001 0.537523 15.6434 0.69689 16.0903L2.5807 15.4186C2.62422 15.5406 2.57555 15.5772 2.63305 15.3325C2.68706 15.1026 2.79102 14.7876 2.96017 14.2801L1.06281 13.6477ZM3.71912 15.0391C3.21166 15.2082 2.89662 15.3122 2.66675 15.3662C2.42205 15.4237 2.45867 15.375 2.5807 15.4186L1.90894 17.3024C2.35585 17.4617 2.79919 17.3896 3.12426 17.3132C3.46416 17.2333 3.88194 17.093 4.35158 16.9365L3.71912 15.0391ZM0.69689 16.0903C0.898527 16.6558 1.34349 17.1007 1.90894 17.3024L2.5807 15.4186L2.5807 15.4186L0.69689 16.0903ZM9.29245 4.70684L13.2924 8.70684L14.7067 7.29262L10.7067 3.29262L9.29245 4.70684Z" fill="#06A1A6"/>
</svg>
