<svg width="32" height="32" viewBox="0 0 32 32" fill="none" xmlns="http://www.w3.org/2000/svg">
<path d="M13.5388 1.67515C14.8467 -0.56698 18.09 -0.556203 19.383 1.69455L22.8649 7.7556C23.1074 8.17772 23.5203 8.47462 23.9977 8.57009L29.1054 9.59164C31.6625 10.1031 32.6993 13.1967 30.9669 15.1457L27.3313 19.2357C26.967 19.6455 26.8244 20.2068 26.949 20.7409L28.607 27.8463C29.2827 30.7422 26.1558 33.0342 23.5975 31.5183L17.3271 27.8025C16.7964 27.488 16.1365 27.488 15.6058 27.8025L9.3354 31.5182C6.77718 33.0342 3.65026 30.7422 4.32597 27.8463L5.96951 20.8026C6.0981 20.2515 5.94201 19.6726 5.55378 19.2608L1.92271 15.4097C0.103426 13.4801 1.11672 10.3026 3.7172 9.78253L8.73749 8.77847C9.21102 8.68376 9.62132 8.39081 9.86465 7.97368L13.5388 1.67515Z" fill="#FFD708"/>
</svg>
